#!OML:ASF F:\VICON\USERDATA\INSTALL\rory3\rory3.ASF
:FULLY-SPECIFIED
:DEGREES
89
root 0.750575 16.3969 -17.0398 0.0618931 -0.247825 6.43978
lowerback 13.3475 0.981231 -9.49451
upperback -4.08318 -0.317007 0.790568
thorax -12.0559 0.605434 6.33619
lowerneck -9.47644 -6.13182 -3.70749
upperneck 19.0892 -8.32631 2.40326
head 7.69713 -4.02633 0.601157
rclavicle 3.47873e-016 -1.59028e-015
rhumerus -42.5069 -3.48013 -80.5824
rradius 24.0605
rwrist 10.972
rhand -7.69283 19.3872
rfingers 7.12502
rthumb 18.2044 -9.78088
lclavicle 3.47873e-016 -1.59028e-015
lhumerus -37.847 3.19349 84.9444
lradius 23.0418
lwrist -0.548829
lhand -5.49023 17.2605
lfingers 7.12502
lthumb 20.3223 46.2173
rfemur -23.3845 0.330417 10.486
rtibia 75.8478
rfoot 11.7144 -2.54151
rtoes 9.38557
lfemur -11.3296 -12.4315 -30.2813
ltibia 24.6784
lfoot -9.84762 6.34276
ltoes 22.0808
90
root 0.762583 16.391 -16.9529 0.0609416 -0.233224 6.44557
lowerback 13.4679 0.952064 -9.38013
upperback -4.01897 -0.353212 0.719199
thorax -12.0453 0.573205 6.20049
lowerneck -9.95793 -6.13432 -3.4393
upperneck 19.1641 -8.35368 2.35048
head 7.79429 -4.01796 0.52119
rclavicle 6.23687e-015 5.56597e-015
rhumerus -42.43 -3.50661 -80.7869
rradius 24.3461
rwrist 10.5259
rhand -7.48199 19.1895
rfingers 7.12502
rthumb 18.4072 -9.9596
lclavicle 6.23687e-015 5.56597e-015
lhumerus -37.4093 3.35741 84.7394
lradius 23.1373
lwrist -0.779633
lhand -5.46384 17.3902
lfingers 7.12502
lthumb 20.3477 46.3443
rfemur -24.557 0.236875 10.6138
rtibia 76.1988
rfoot 9.70477 -1.72993
rtoes 9.07777
lfemur -10.9711 -12.5164 -30.4265
ltibia 24.7112
lfoot -10.308 6.25297
ltoes 22.9854
91
root 0.773794 16.3819 -16.8665 0.11114 -0.350229 6.48057
lowerback 13.5402 0.863832 -9.48481
upperback -4.01308 -0.488977 0.803261
thorax -12.058 0.521855 6.38801
lowerneck -10.1064 -5.97294 -3.49621
upperneck 19.2047 -8.11977 2.36316
head 7.83004 -3.90727 0.553095
rclavicle 7.95139e-016 -2.38542e-015
rhumerus -42.3688 -3.11811 -80.923
rradius 24.5827
rwrist 10.1819
rhand -7.21884 19.2333
rfingers 7.12502
rthumb 18.6603 -9.89163
lclavicle 7.95139e-016 -2.38542e-015
lhumerus -37.0548 3.89646 84.5995
lradius 23.0335
lwrist -0.96515
lhand -5.27092 17.6708
lfingers 7.12502
lthumb 20.5331 46.6049
rfemur -25.836 0.301364 10.7195
rtibia 76.4251
rfoot 7.98118 -1.21085
rtoes 8.76786
lfemur -10.743 -12.4826 -30.5915
ltibia 24.851
lfoot -10.6941 6.41295
ltoes 22.6144
92
root 0.784419 16.3763 -16.7722 0.139169 -0.573123 6.42648
lowerback 13.5003 0.82008 -9.54686
upperback -3.97549 -0.540282 0.914406
thorax -11.9812 0.502341 6.55945
lowerneck -10.2032 -5.85946 -3.52403
upperneck 19.3088 -7.94703 2.30643
head 7.87521 -3.83038 0.55248
rclavicle 1.30701e-014 3.97569e-015
rhumerus -42.2277 -3.02591 -80.9242
rradius 24.5495
rwrist 10.2862
rhand -6.95162 19.1334
rfingers 7.12502
rthumb 18.9174 -9.96665
lclavicle 1.30701e-014 3.97569e-015
lhumerus -36.7651 4.08011 84.6654
lradius 23.1735
lwrist -0.743859
lhand -5.33113 17.8782
lfingers 7.12502
lthumb 20.4752 46.8186
rfemur -27.0471 0.558545 10.9433
rtibia 76.3882
rfoot 6.1129 -0.974402
rtoes 7.91979
lfemur -10.4814 -12.3631 -30.672
ltibia 25.0048
lfoot -11.0375 6.65837
ltoes 21.8733
93
root 0.791913 16.3747 -16.6794 0.160456 -0.630896 6.29546
lowerback 13.5722 0.783742 -9.47085
upperback -4.04815 -0.579267 0.978424
thorax -12.0998 0.490741 6.59979
lowerneck -9.96004 -5.81674 -3.53449
upperneck 19.3153 -7.88766 2.27251
head 7.83083 -3.80953 0.55695
rclavicle 6.65929e-015 -7.95139e-016
rhumerus -42.4054 -3.08808 -80.9475
rradius 24.6943
rwrist 10.2731
rhand -6.32311 18.5179
rfingers 7.12502
rthumb 19.5217 -10.5221
lclavicle 6.65929e-015 -7.95139e-016
lhumerus -36.7093 4.00287 84.7147
lradius 23.3831
lwrist -0.53316
lhand -5.48024 17.793
lfingers 7.12502
lthumb 20.3319 46.7487
rfemur -28.0252 0.618933 11.2754
rtibia 76.0967
rfoot 4.54538 -0.935436
rtoes 7.77336
lfemur -10.182 -12.4043 -30.6536
ltibia 25.1395
lfoot -11.4943 6.73749
ltoes 22.3719
94
root 0.801237 16.3689 -16.5873 0.150952 -0.60254 6.12405
lowerback 13.7071 0.681614 -9.27774
upperback -4.08827 -0.688644 1.05086
thorax -12.2038 0.43543 6.60045
lowerneck -9.99117 -5.74861 -3.62256
upperneck 19.5032 -7.79107 2.30621
head 7.90087 -3.76512 0.588455
rclavicle -7.50412e-015 9.54166e-015
rhumerus -42.5617 -2.71568 -81.2223
rradius 25.1877
rwrist 9.91031
rhand -6.07269 17.7275
rfingers 7.12502
rthumb 19.7625 -11.2878
lclavicle -7.50412e-015 9.54166e-015
lhumerus -36.7341 4.16872 84.6877
lradius 23.7456
lwrist -0.612744
lhand -5.41447 17.9723
lfingers 7.12502
lthumb 20.3951 46.9213
rfemur -28.8657 0.514292 11.6339
rtibia 75.6133
rfoot 3.17994 -0.938543
rtoes 7.2596
lfemur -9.78382 -12.5883 -30.6289
ltibia 25.2075
lfoot -11.8972 6.88421
ltoes 22.4698
95
root 0.810412 16.3608 -16.4932 0.112098 -0.67505 6.08571
lowerback 13.6899 0.630067 -9.18689
upperback -3.9357 -0.73315 1.0392
thorax -12.0076 0.390579 6.54286
lowerneck -10.2688 -5.73883 -3.43508
upperneck 19.3933 -7.78712 2.25224
head 7.90384 -3.75201 0.534012
rclavicle 5.86415e-015 -1.11319e-014
rhumerus -42.3279 -2.55341 -81.5278
rradius 25.5195
rwrist 9.63579
rhand -6.44163 18.6298
rfingers 7.12502
rthumb 19.4078 -10.4216
lclavicle 5.86415e-015 -1.11319e-014
lhumerus -36.3093 3.93351 84.8374
lradius 24.0763
lwrist -0.345683
lhand -5.49541 18.9839
lfingers 7.12502
lthumb 20.3174 47.9411
rfemur -29.7371 0.548207 11.8414
rtibia 75.0048
rfoot 1.73194 -0.939143
rtoes 5.28636
lfemur -9.32409 -12.7364 -30.762
ltibia 25.184
lfoot -12.2704 7.16815
ltoes 21.9651
96
root 0.815018 16.3572 -16.3972 0.143015 -0.661462 6.12735
lowerback 13.6543 0.553945 -9.20285
upperback -3.892 -0.835643 1.01181
thorax -11.9167 0.335393 6.54339
lowerneck -10.223 -5.69954 -3.29371
upperneck 19.1824 -7.74831 2.23375
head 7.8176 -3.72769 0.513733
rclavicle 1.06847e-015 9.54166e-015
rhumerus -42.2898 -2.45856 -81.736
rradius 25.6952
rwrist 9.39098
rhand -7.08646 20.404
rfingers 7.12502
rthumb 18.7877 -8.70865
lclavicle 1.06847e-015 9.54166e-015
lhumerus -35.965 3.89376 84.8735
lradius 24.2851
lwrist -0.108113
lhand -5.60461 19.7383
lfingers 7.12502
lthumb 20.2124 48.7067
rfemur -30.5774 0.517266 11.9643
rtibia 74.2291
rfoot 0.30426 -1.11154
rtoes 4.68511
lfemur -8.90889 -12.8492 -30.9349
ltibia 25.0973
lfoot -12.6337 7.40268
ltoes 21.1317
97
root 0.8168 16.3507 -16.3002 0.136998 -0.690265 6.17229
lowerback 13.8713 0.511052 -9.30542
upperback -3.98615 -0.940594 1.00523
thorax -12.1368 0.309124 6.62671
lowerneck -10.1489 -5.58572 -3.30386
upperneck 19.2962 -7.62008 2.34973
head 7.84327 -3.65686 0.567095
rclavicle -1.03865e-014 1.03368e-014
rhumerus -42.4999 -2.38076 -81.8779
rradius 25.9105
rwrist 9.24625
rhand -7.695 21.0089
rfingers 7.12502
rthumb 18.2023 -8.15942
lclavicle -1.03865e-014 1.03368e-014
lhumerus -35.932 3.66447 84.9318
lradius 24.5912
lwrist 0.473091
lhand -5.57054 19.8819
lfingers 7.12502
lthumb 20.2451 48.8468
rfemur -31.3531 0.648975 12.0896
rtibia 73.3492
rfoot -1.14205 -1.56555
rtoes 6.01534
lfemur -8.4246 -12.9349 -31.1208
ltibia 24.9985
lfoot -13.0025 7.67662
ltoes 20.0727
98
root 0.818791 16.343 -16.2001 0.142669 -0.97462 6.25585
lowerback 13.8622 0.548158 -9.50364
upperback -3.97277 -0.924584 1.02068
thorax -12.1198 0.331105 6.75342
lowerneck -10.1468 -5.482 -3.3162
upperneck 19.2677 -7.49934 2.47545
head 7.83525 -3.58892 0.622949
rclavicle 3.8266e-015 1.43125e-014
rhumerus -42.6322 -2.22619 -81.9957
rradius 26.2283
rwrist 9.1381
rhand -8.21846 21.0519
rfingers 7.12502
rthumb 17.6986 -8.16264
lclavicle 3.8266e-015 1.43125e-014
lhumerus -35.74 3.44331 85.0634
lradius 24.6712
lwrist 0.783882
lhand -5.56938 19.5426
lfingers 7.12502
lthumb 20.2463 48.5074
rfemur -32.1849 1.02748 12.1674
rtibia 72.3336
rfoot -2.46779 -2.01543
rtoes 7.40191
lfemur -7.96605 -13.0027 -31.3483
ltibia 24.9205
lfoot -13.4749 8.11112
ltoes 19.807
